<svg width="30" height="30" viewBox="0 0 30 30" fill="none" xmlns="http://www.w3.org/2000/svg">
<path d="M24.4425 11.86C24.5937 12.5637 24.575 13.4175 24.3925 14.4237C23.665 18.1462 21.2962 20.0062 17.2887 20.0062H16.7362C16.532 20.005 16.3345 20.0789 16.1812 20.2137C16.0224 20.3513 15.9167 20.5402 15.8825 20.7475L15.8312 20.9837L15.14 25.3325L15.1137 25.5212C15.078 25.73 14.9685 25.9191 14.805 26.0537C14.6507 26.1895 14.4517 26.2634 14.2462 26.2612H11.0925C11.0135 26.2654 10.9348 26.2505 10.8628 26.2179C10.7908 26.1853 10.7276 26.1358 10.6787 26.0737C10.629 26.0103 10.5933 25.9371 10.5739 25.8589C10.5545 25.7807 10.5519 25.6993 10.5662 25.62C10.6425 25.1537 10.7512 24.4475 10.9 23.5087C11.0462 22.5712 11.1575 21.8662 11.2337 21.3975C11.31 20.9287 11.4212 20.225 11.5737 19.2912C11.725 18.3562 11.8387 17.6537 11.9125 17.185C11.9537 16.875 12.1362 16.7212 12.4537 16.7212H14.0987C15.215 16.7375 16.2012 16.65 17.0675 16.4575C18.5325 16.13 19.735 15.5275 20.675 14.6462C21.5312 13.85 22.1787 12.8187 22.625 11.555C22.8275 10.9675 22.9712 10.4087 23.065 9.8825C23.0725 9.83125 23.0825 9.79999 23.0962 9.79C23.1062 9.77625 23.1237 9.7725 23.14 9.77625C23.1671 9.78836 23.1931 9.80301 23.2175 9.82C23.8725 10.3175 24.285 10.9962 24.4425 11.86ZM22.2825 8.315C22.2825 9.21125 22.09 10.2 21.7012 11.2825C21.03 13.235 19.7675 14.555 17.905 15.2425C16.9575 15.5787 15.9025 15.7525 14.7362 15.7737C14.7362 15.7812 14.36 15.7825 13.6062 15.7825L12.4775 15.7737C11.6375 15.7737 11.1437 16.1737 10.9937 16.9787C10.9775 17.045 10.6212 19.2662 9.92497 23.64C9.91497 23.7225 9.86497 23.7675 9.77372 23.7675H6.06747C5.98013 23.7693 5.89346 23.7518 5.81371 23.7161C5.73395 23.6805 5.66309 23.6276 5.60622 23.5612C5.54722 23.496 5.50366 23.4183 5.47877 23.3339C5.45389 23.2495 5.44832 23.1606 5.46247 23.0737L8.37747 4.58C8.41481 4.34334 8.53754 4.12856 8.72247 3.97625C8.90278 3.82105 9.13333 3.73665 9.37122 3.73875H16.8887C17.1737 3.73875 17.5825 3.79375 18.1125 3.9025C18.6475 4.0075 19.1137 4.145 19.5162 4.30375C20.4137 4.64625 21.0987 5.16375 21.5725 5.85C22.0462 6.54 22.2825 7.35875 22.2825 8.315Z" fill="white"/>
</svg>
